<?xml version="1.0" encoding="utf-8"?>
<!-- Generator: Adobe Illustrator 16.0.3, SVG Export Plug-In . SVG Version: 6.00 Build 0)  -->
<svg version="1.2" baseProfile="tiny" id="Logo" xmlns="http://www.w3.org/2000/svg" xmlns:xlink="http://www.w3.org/1999/xlink"
	 x="0px" y="0px" width="1133.8603516px" height="1814.1699219px" viewBox="0 0 1133.8603516 1814.1699219" xml:space="preserve">
<rect id="Black_rectangle" x="0.0009766" width="1133.8583984" height="1814.1738281"/>
<path id="White_foreground" fill="#FFFFFF" d="M1077.1650391,1745.4804688c0,6.6269531-5.3720703,12-12,12H947.4335938
	c-6.6269531,0-12-5.3730469-12-12v-56.3515625c0-6.6269531,5.3730469-12,12-12h117.7314453c6.6279297,0,12,5.3730469,12,12
	V1745.4804688z M1077.1650391,1528.4238281c0-6.6269531-5.3720703-12-12-12H947.4335938c-6.6269531,0-12,5.3730469-12,12v56.3515625
	c0,6.6269531,5.3730469,12,12,12h117.7314453c6.6279297,0,12-5.3730469,12-12V1528.4238281z M1077.1650391,1367.7197266
	c0-6.6279297-5.3720703-12-12-12H947.4335938c-6.6269531,0-12,5.3720703-12,12v56.3525391c0,6.6269531,5.3730469,12,12,12
	h117.7314453c6.6279297,0,12-5.3730469,12-12V1367.7197266z M1077.1650391,1207.0166016c0-6.6279297-5.3720703-12-12-12H947.4335938
	c-6.6269531,0-12,5.3720703-12,12v56.3515625c0,6.6279297,5.3730469,12,12,12h117.7314453c6.6279297,0,12-5.3720703,12-12
	V1207.0166016z M1077.1650391,1046.3105469c0-6.6269531-5.3720703-12-12-12H947.4335938c-6.6269531,0-12,5.3730469-12,12v56.3515625
	c0,6.6269531,5.3730469,12,12,12h117.7314453c6.6279297,0,12-5.3730469,12-12V1046.3105469z M1077.1650391,885.6069336
	c0-6.6274414-5.3720703-12-12-12H947.4335938c-6.6269531,0-12,5.3725586-12,12v56.3520508c0,6.6269531,5.3730469,12,12,12
	h117.7314453c6.6279297,0,12-5.3730469,12-12V885.6069336z M1077.1650391,724.9018555c0-6.6274414-5.3720703-12-12-12H947.4335938
	c-6.6269531,0-12,5.3725586-12,12v56.3530273c0,6.6274414,5.3730469,12,12,12h117.7314453c6.6279297,0,12-5.3725586,12-12
	V724.9018555z M1077.1650391,564.1982422c0-6.6274414-5.3720703-12-12-12H947.4335938c-6.6269531,0-12,5.3725586-12,12v56.3520508
	c0,6.6274414,5.3730469,12,12,12h117.7314453c6.6279297,0,12-5.3725586,12-12V564.1982422z M1077.1650391,403.4936523
	c0-6.6274414-5.3720703-12-12-12H947.4335938c-6.6269531,0-12,5.3725586-12,12v56.3515625c0,6.6274414,5.3730469,12,12,12
	h117.7314453c6.6279297,0,12-5.3725586,12-12V403.4936523z M1077.1650391,229.3974609c0-6.6274414-5.3720703-12-12-12H947.4335938
	c-6.6269531,0-12,5.3725586-12,12v56.3520508c0,6.6274414,5.3730469,12,12,12h117.7314453c6.6279297,0,12-5.3725586,12-12
	V229.3974609z M1077.1650391,68.6923828c0-6.6274414-5.3720703-12-12-12H947.4335938c-6.6269531,0-12,5.3725586-12,12v56.3520508
	c0,6.6274414,5.3730469,12,12,12h117.7314453c6.6279297,0,12-5.3725586,12-12V68.6923828z M198.4248047,1689.1289063
	c0-6.6269531-5.3725586-12-12-12H68.6928711c-6.6274414,0-12,5.3730469-12,12v56.3515625c0,6.6269531,5.3725586,12,12,12
	h117.7319336c6.6274414,0,12-5.3730469,12-12V1689.1289063z M198.4248047,1528.4238281c0-6.6269531-5.3725586-12-12-12H68.6928711
	c-6.6274414,0-12,5.3730469-12,12v56.3515625c0,6.6269531,5.3725586,12,12,12h117.7319336c6.6274414,0,12-5.3730469,12-12
	V1528.4238281z M198.4248047,1367.7197266c0-6.6279297-5.3725586-12-12-12H68.6928711c-6.6274414,0-12,5.3720703-12,12v56.3525391
	c0,6.6269531,5.3725586,12,12,12h117.7319336c6.6274414,0,12-5.3730469,12-12V1367.7197266z M198.4248047,1207.0166016
	c0-6.6279297-5.3725586-12-12-12H68.6928711c-6.6274414,0-12,5.3720703-12,12v56.3515625c0,6.6279297,5.3725586,12,12,12
	h117.7319336c6.6274414,0,12-5.3720703,12-12V1207.0166016z M198.4248047,1046.3105469c0-6.6269531-5.3725586-12-12-12H68.6928711
	c-6.6274414,0-12,5.3730469-12,12v56.3515625c0,6.6269531,5.3725586,12,12,12h117.7319336c6.6274414,0,12-5.3730469,12-12
	V1046.3105469z M198.4248047,885.6069336c0-6.6274414-5.3725586-12-12-12H68.6928711c-6.6274414,0-12,5.3725586-12,12v56.3520508
	c0,6.6269531,5.3725586,12,12,12h117.7319336c6.6274414,0,12-5.3730469,12-12V885.6069336z M198.4248047,724.9018555
	c0-6.6274414-5.3725586-12-12-12H68.6928711c-6.6274414,0-12,5.3725586-12,12v56.3530273c0,6.6274414,5.3725586,12,12,12
	h117.7319336c6.6274414,0,12-5.3725586,12-12V724.9018555z M198.4248047,564.1982422c0-6.6274414-5.3725586-12-12-12H68.6928711
	c-6.6274414,0-12,5.3725586-12,12v56.3520508c0,6.6274414,5.3725586,12,12,12h117.7319336c6.6274414,0,12-5.3725586,12-12
	V564.1982422z M198.4248047,403.4936523c0-6.6274414-5.3725586-12-12-12H68.6928711c-6.6274414,0-12,5.3725586-12,12v56.3515625
	c0,6.6274414,5.3725586,12,12,12h117.7319336c6.6274414,0,12-5.3725586,12-12V403.4936523z M198.4248047,229.3974609
	c0-6.6274414-5.3725586-12-12-12H68.6928711c-6.6274414,0-12,5.3725586-12,12v56.3520508c0,6.6274414,5.3725586,12,12,12
	h117.7319336c6.6274414,0,12-5.3725586,12-12V229.3974609z M198.4248047,68.6923828c0-6.6274414-5.3725586-12-12-12H68.6928711
	c-6.6274414,0-12,5.3725586-12,12v56.3520508c0,6.6274414,5.3725586,12,12,12h117.7319336c6.6274414,0,12-5.3725586,12-12
	V68.6923828z M780.2705078,1758.7011719c5.9941406,0,9.9892578-4.328125,9.9892578-10.2109375
	c0-6.1044922-3.9951172-10.3222656-9.8779297-10.3222656s-9.9892578,4.328125-9.9892578,10.3222656
	C770.3925781,1754.3730469,774.4990234,1758.7011719,780.2705078,1758.7011719z M746.6396484,1757.4804688l25.1953125-74.8085938
	h-17.9804688l-9.5449219,31.9658203c-2.5527344,8.5458984-4.8837891,17.4257813-6.7705078,26.4160156h-0.3330078
	c-1.7763672-9.3232422-4.1074219-17.8701172-6.6601563-26.7490234l-9.1015625-31.6328125h-18.5351563l23.9746094,74.8085938
	H746.6396484z M688.4804688,1758.7011719c5.9941406,0,9.9892578-4.328125,9.9892578-10.2109375
	c0-6.1044922-3.9951172-10.3222656-9.8779297-10.3222656s-9.9892578,4.328125-9.9892578,10.3222656
	C678.6025391,1754.3730469,682.7089844,1758.7011719,688.4804688,1758.7011719z M670.9238281,1735.7255859
	c0.2216797-1.2207031,0.5546875-3.7734375,0.5546875-6.6591797c0-13.4296875-6.6601563-27.0820313-24.1962891-27.0820313
	c-18.8691406,0-27.4150391,15.2060547-27.4150391,28.96875c0,16.9824219,10.5439453,27.6376953,28.96875,27.6376953
	c7.3251953,0,14.0957031-1.1103516,19.6455078-3.3300781l-2.2197266-11.4326172
	c-4.5507813,1.4433594-9.2119141,2.2197266-14.984375,2.2197266c-7.8798828,0-14.7617188-3.3291016-15.3164063-10.3222656
	H670.9238281z M635.8496094,1724.1826172c0.4443359-4.5507813,3.3300781-10.9882813,10.4335938-10.9882813
	c7.7695313,0,9.5449219,6.8818359,9.5449219,10.9882813H635.8496094z M595.2763672,1559.0546875h170.0791016v-113.3857422
	H595.2763672v-56.6923828h198.4248047l0.0009766-141.7333984h-453.543457v510.2373047h255.1166992L595.2763672,1559.0546875z
	 M340.1577148,651.9677734v510.2373047h453.543457l-0.0009766-141.7324219H595.2753906V651.96875L340.1577148,651.9677734z
	 M340.1577148,566.9296875h453.543457l-0.0009766-141.7329102H595.2753906v-56.6928711h170.0791016V255.1181641H595.2753906
	V198.425293h198.4248047l0.0009766-141.7329102h-453.543457V566.9296875z"/>
</svg>
